# xmcd
# 
# Track frame offsets:
#     150
#     18072
#     35347
#     46062
#     57770
#     76125
#     93562
#     120045
#     146332
#     164110
#     172367
#     187197
# 
# Disc length: 3629
# 
# Revision: 2
# Processed by: cddbd v1.5.2PL0 Copyright (c) Steve Scherf et al.
# Submitted via: fre:ac v1.0.31
# 
DISCID=950e2b0c
DTITLE=ニューロティカ - よっしゃ、よっしゃ、よっしゃーぁ
DYEAR=1990
DGENRE=Pop
TTITLE0=悲しきラガー〜闘魂スペシャル〜
TTITLE1=Oh!忙し
TTITLE2=FUCKIN’ GIRL
TTITLE3=NAGALITY
TTITLE4=君だけ
TTITLE5=PAPILLON
TTITLE6=まむしのブキ
TTITLE7=修豚男歌
TTITLE8=悲しきピエロ
TTITLE9=HIGH-RI-HOO CARNIVAL
TTITLE10=PANIC LIFE
TTITLE11=夏・渚・17才
EXTD=
EXTT0=
EXTT1=
EXTT2=
EXTT3=
EXTT4=
EXTT5=
EXTT6=
EXTT7=
EXTT8=
EXTT9=
EXTT10=
EXTT11=
PLAYORDER=
